<?xml version="1.0" encoding="iso-8859-1"?>
<svg xmlns="http://www.w3.org/2000/svg" xmlns:xlink="http://www.w3.org/1999/xlink" width="0" height="0" style="position:absolute;">
<symbol viewBox="0 0 15 14" id="icon2">
<path d="M7.35735 8.58336C8.20617 8.58336 9.03592 8.33166 9.74168 7.86008C10.4474 7.38851 10.9975 6.71824 11.3223 5.93404C11.6472 5.14983 11.7322 4.28692 11.5666 3.45442C11.401 2.62191 10.9922 1.85721 10.392 1.25701C9.79183 0.656803 9.02712 0.248061 8.19462 0.0824653C7.36211 -0.08313 6.4992 0.00185951 5.715 0.326687C4.9308 0.651514 4.26053 1.20159 3.78895 1.90735C3.31738 2.61311 3.06567 3.44287 3.06567 4.29168C3.06567 5.4299 3.51783 6.52151 4.32268 7.32636C5.12752 8.1312 6.21913 8.58336 7.35735 8.58336ZM7.35735 1.2262C7.96365 1.2262 8.55633 1.40598 9.06044 1.74282C9.56456 2.07966 9.95747 2.55843 10.1895 3.11857C10.4215 3.67871 10.4822 4.29508 10.3639 4.88973C10.2457 5.48437 9.95369 6.03059 9.52498 6.45931C9.09626 6.88802 8.55005 7.17998 7.9554 7.29826C7.36075 7.41655 6.74439 7.35584 6.18424 7.12382C5.6241 6.8918 5.14534 6.49889 4.8085 5.99477C4.47166 5.49066 4.29187 4.89798 4.29187 4.29168C4.29187 3.47866 4.61484 2.69895 5.18973 2.12406C5.76462 1.54917 6.54434 1.2262 7.35735 1.2262Z" fill="#46494F"/>
<path d="M7.97026 9.80981H6.74407C4.95543 9.80981 3.24005 10.5203 1.97529 11.7851C0.710534 13.0499 0 14.7652 0 16.5539C0 16.7165 0.0645941 16.8724 0.179572 16.9874C0.29455 17.1024 0.450494 17.167 0.613097 17.167H14.1012C14.2638 17.167 14.4198 17.1024 14.5348 16.9874C14.6497 16.8724 14.7143 16.7165 14.7143 16.5539C14.7143 14.7652 14.0038 13.0499 12.739 11.7851C11.4743 10.5203 9.7589 9.80981 7.97026 9.80981ZM1.26298 15.9408C1.41374 14.5924 2.05603 13.3468 3.06713 12.442C4.07823 11.5372 5.38725 11.0367 6.74407 11.036H7.97026C9.32708 11.0367 10.6361 11.5372 11.6472 12.442C12.6583 13.3468 13.3006 14.5924 13.4513 15.9408H1.26298Z" fill="#46494F"/>
</symbol>
</svg>


