
<svg xmlns="http://www.w3.org/2000/svg" xmlns:xlink="http://www.w3.org/1999/xlink" width="20" height="0" style="position:absolute;">
<symbol viewBox="0 0 2560 1249" id="Logo-1C" preserveAspectRatio="xMidYMid meet">

<g transform="translate(0.000000,1249.000000) scale(0.100000,-0.100000)"  stroke="none">
<path d="M1830 11660 l0 -830 1215 0 1215 0 0 -5405 0 -5405 825 0 825 0 0
6235 0 6235 -2040 0 -2040 0 0 -830z"/>
<path d="M12920 12474 c-515 -28 -898 -85 -1338 -199 -2060 -537 -3723 -2122
-4362 -4160 -147 -469 -235 -944 -271 -1459 -15 -219 -6 -786 15 -996 82 -792
289 -1504 642 -2200 561 -1110 1445 -2028 2537 -2636 247 -138 708 -337 1023
-442 487 -163 1296 -306 2004 -354 105 -7 2136 -12 6283 -15 l6127 -4 0 820 0
820 -6127 4 c-5655 3 -6141 5 -6298 20 -395 39 -702 84 -1005 148 -566 118
-1074 330 -1535 641 -675 456 -1209 1066 -1566 1791 -479 973 -593 2071 -324
3137 162 644 479 1263 919 1795 120 145 433 460 571 574 719 595 1521 938
2443 1048 185 22 762 25 947 5 831 -89 1594 -383 2249 -865 767 -565 1341
-1352 1640 -2249 116 -346 200 -773 220 -1113 4 -55 9 -137 12 -182 l6 -83
819 0 819 0 0 103 c0 307 -63 820 -146 1192 -207 924 -621 1783 -1220 2531
-157 197 -279 331 -478 529 -1048 1041 -2421 1670 -3896 1785 -143 11 -600 20
-710 14z"/>
<path d="M22457 12354 c-219 -39 -412 -139 -574 -297 -131 -127 -215 -261
-273 -435 -81 -244 -62 -540 49 -776 107 -229 286 -415 507 -525 163 -82 311
-115 499 -114 179 2 319 35 480 115 312 155 534 465 585 817 17 111 7 311 -19
417 -103 418 -445 729 -876 799 -111 18 -274 18 -378 -1z m378 -173 c445 -92
754 -485 732 -931 -13 -249 -103 -447 -280 -617 -177 -170 -386 -253 -637
-253 -179 0 -330 41 -483 131 -101 59 -258 219 -316 322 -205 365 -148 802
143 1093 221 222 538 318 841 255z"/>
<path d="M22270 11296 l0 -536 95 0 95 0 0 221 0 221 143 -4 c129 -3 146 -5
184 -27 66 -38 83 -83 83 -217 0 -113 10 -172 32 -186 7 -4 55 -8 106 -8 88 0
92 1 83 19 -6 11 -15 86 -21 168 -6 81 -15 166 -21 188 -14 53 -53 102 -95
122 -19 9 -34 20 -34 23 0 4 18 15 39 25 22 9 54 31 71 48 53 52 65 84 65 172
0 134 -52 218 -169 272 l-61 28 -297 3 -298 3 0 -535z m544 374 c62 -31 86
-73 86 -150 0 -71 -26 -115 -83 -140 -36 -17 -66 -20 -199 -20 l-158 0 0 163
c0 90 3 167 8 171 4 4 72 6 152 4 131 -3 150 -6 194 -28z"/>
<path d="M0 9195 l0 -795 915 0 915 0 0 -4190 0 -4190 795 0 795 0 0 4985 0
4985 -1710 0 -1710 0 0 -795z"/>
<path d="M12920 9804 c-19 -2 -84 -9 -145 -14 -590 -58 -1207 -293 -1694 -648
-478 -347 -850 -787 -1106 -1307 -57 -115 -126 -271 -153 -345 -352 -962 -276
-2028 208 -2920 82 -151 246 -398 356 -535 193 -240 512 -534 774 -711 506
-342 956 -501 1680 -594 458 -59 -117 -54 6603 -57 l6137 -3 0 790 0 790
-6097 3 -6098 3 -186 21 c-382 45 -494 67 -710 141 -163 56 -259 100 -364 165
-504 312 -838 822 -921 1403 -20 144 -20 408 1 549 51 353 203 699 425 970 75
92 245 255 341 328 385 292 892 435 1370 386 540 -55 1015 -312 1349 -730 242
-303 400 -700 426 -1071 l7 -98 788 0 789 0 0 80 c0 183 -49 517 -109 751
-112 434 -317 863 -583 1220 -593 798 -1456 1296 -2458 1419 -87 11 -566 21
-630 14z"/>
</g>
</symbol>
</svg>