<?xml version='1.0' encoding='iso-8859-1'?>
<svg version="1.1" xmlns="http://www.w3.org/2000/svg" viewBox="0 0 60 60" xmlns:xlink="http://www.w3.org/1999/xlink" enable-background="new 0 0 60 60">
  <g>
    <g>
      <path d="m54,24c-3.314,0-6,2.686-6,6 0,3.314 2.686,6 6,6 3.314,0 6-2.686 6-6 0-3.314-2.686-6-6-6zm0,10c-2.209,0-4-1.791-4-4 0-2.209 1.791-4 4-4 2.209,0 4,1.791 4,4 0,2.209-1.791,4-4,4zm-48-10c-3.314,0-6,2.686-6,6 0,3.314 2.686,6 6,6 3.314,0 6-2.686 6-6 0-3.314-2.686-6-6-6zm0,10c-2.209,0-4-1.791-4-4 0-2.209 1.791-4 4-4 2.209,0 4,1.791 4,4 0,2.209-1.791,4-4,4zm24-34c-3.314,0-6,2.686-6,6s2.686,6 6,6c3.314,0 6-2.686 6-6s-2.686-6-6-6zm0,10c-2.209,0-4-1.791-4-4 0-2.209 1.791-4 4-4 2.209,0 4,1.791 4,4 0,2.209-1.791,4-4,4zm0,38c-3.314,0-6,2.686-6,6s2.686,6 6,6c3.314,0 6-2.686 6-6s-2.686-6-6-6zm0,10c-2.209,0-4-1.791-4-4 0-2.209 1.791-4 4-4 2.209,0 4,1.791 4,4 0,2.209-1.791,4-4,4z"/>
    </g>
  </g>
  <g>
    <g>
      <path d="m20.358,14.256l-6.102,6.102c-0.374,0.374-0.374,0.982 0,1.356 0.374,0.374 0.982,0.374 1.356,0l6.102-6.102c0.374-0.374 0.374-0.982 0-1.356-0.375-0.374-0.982-0.374-1.356-1.77636e-15zm24.005,7.459c0.373,0.373 0.978,0.373 1.351,0 0.373-0.373 0.373-0.978 0-1.351l-6.078-6.078c-0.373-0.373-0.978-0.373-1.351,0s-0.373,0.978 0,1.351l6.078,6.078zm-.005,16.57l-6.096,6.078c-0.374,0.373-0.374,0.978 0,1.351s0.981,0.373 1.355,0l6.096-6.078c0.374-0.373 0.374-0.978 0-1.351-0.374-0.373-0.981-0.373-1.355,0zm-28.723-.001c-0.373-0.372-0.977-0.372-1.349,0-0.373,0.372-0.373,0.974 0,1.345l6.072,6.054c0.373,0.372 0.977,0.372 1.349,0 0.373-0.371 0.373-0.974 0-1.345l-6.072-6.054z"/>
    </g>
  </g>
</svg>
